v 157.00 19.20 1.18
v 157.20 19.20 1.18
v 157.20 19.40 1.18
v 157.00 19.40 1.18
v 157.00 19.20 1.98
v 157.20 19.20 1.98
v 157.20 19.40 1.98
v 157.00 19.40 1.98
v 157.00 19.00 1.18
v 157.40 19.00 1.18
v 157.40 19.20 1.18
v 157.00 19.20 1.18
v 157.00 19.00 1.98
v 157.40 19.00 1.98
v 157.40 19.20 1.98
v 157.00 19.20 1.98
v 157.20 18.80 1.18
v 157.60 18.80 1.18
v 157.60 19.00 1.18
v 157.20 19.00 1.18
v 157.20 18.80 1.98
v 157.60 18.80 1.98
v 157.60 19.00 1.98
v 157.20 19.00 1.98
v 156.40 18.60 1.18
v 156.60 18.60 1.18
v 156.60 18.80 1.18
v 156.40 18.80 1.18
v 156.40 18.60 1.98
v 156.60 18.60 1.98
v 156.60 18.80 1.98
v 156.40 18.80 1.98
v 157.40 18.40 1.18
v 157.80 18.40 1.18
v 157.80 18.80 1.18
v 157.40 18.80 1.18
v 157.40 18.40 1.98
v 157.80 18.40 1.98
v 157.80 18.80 1.98
v 157.40 18.80 1.98
v 156.40 18.40 1.19
v 156.80 18.40 1.19
v 156.80 18.60 1.18
v 156.40 18.60 1.18
v 156.40 18.40 1.99
v 156.80 18.40 1.99
v 156.80 18.60 1.98
v 156.40 18.60 1.98
v 156.60 18.20 1.19
v 157.40 18.20 1.19
v 157.40 18.40 1.18
v 156.60 18.40 1.19
v 156.60 18.20 1.99
v 157.40 18.20 1.99
v 157.40 18.40 1.98
v 156.60 18.40 1.99
v 156.80 18.00 1.19
v 157.20 18.00 1.19
v 157.20 18.20 1.19
v 156.80 18.20 1.19
v 156.80 18.00 1.99
v 157.20 18.00 1.99
v 157.20 18.20 1.99
v 156.80 18.20 1.99
vn 0 0 1
vn 0 -1 0
vn 1 0 0
vn 0 1 0
vn -1 0 0
f 5//1 6//1 7//1
f 5//1 7//1 8//1
f 1//2 2//2 6//2
f 1//2 6//2 5//2
f 2//3 3//3 7//3
f 2//3 7//3 6//3
f 3//4 4//4 8//4
f 3//4 8//4 7//4
f 4//5 1//5 5//5
f 4//5 5//5 8//5
f 13//1 14//1 15//1
f 13//1 15//1 16//1
f 9//2 10//2 14//2
f 9//2 14//2 13//2
f 10//3 11//3 15//3
f 10//3 15//3 14//3
f 11//4 12//4 16//4
f 11//4 16//4 15//4
f 12//5 9//5 13//5
f 12//5 13//5 16//5
f 21//1 22//1 23//1
f 21//1 23//1 24//1
f 17//2 18//2 22//2
f 17//2 22//2 21//2
f 18//3 19//3 23//3
f 18//3 23//3 22//3
f 19//4 20//4 24//4
f 19//4 24//4 23//4
f 20//5 17//5 21//5
f 20//5 21//5 24//5
f 29//1 30//1 31//1
f 29//1 31//1 32//1
f 25//2 26//2 30//2
f 25//2 30//2 29//2
f 26//3 27//3 31//3
f 26//3 31//3 30//3
f 27//4 28//4 32//4
f 27//4 32//4 31//4
f 28//5 25//5 29//5
f 28//5 29//5 32//5
f 37//1 38//1 39//1
f 37//1 39//1 40//1
f 33//2 34//2 38//2
f 33//2 38//2 37//2
f 34//3 35//3 39//3
f 34//3 39//3 38//3
f 35//4 36//4 40//4
f 35//4 40//4 39//4
f 36//5 33//5 37//5
f 36//5 37//5 40//5
f 45//1 46//1 47//1
f 45//1 47//1 48//1
f 41//2 42//2 46//2
f 41//2 46//2 45//2
f 42//3 43//3 47//3
f 42//3 47//3 46//3
f 43//4 44//4 48//4
f 43//4 48//4 47//4
f 44//5 41//5 45//5
f 44//5 45//5 48//5
f 53//1 54//1 55//1
f 53//1 55//1 56//1
f 49//2 50//2 54//2
f 49//2 54//2 53//2
f 50//3 51//3 55//3
f 50//3 55//3 54//3
f 51//4 52//4 56//4
f 51//4 56//4 55//4
f 52//5 49//5 53//5
f 52//5 53//5 56//5
f 61//1 62//1 63//1
f 61//1 63//1 64//1
f 57//2 58//2 62//2
f 57//2 62//2 61//2
f 58//3 59//3 63//3
f 58//3 63//3 62//3
f 59//4 60//4 64//4
f 59//4 64//4 63//4
f 60//5 57//5 61//5
f 60//5 61//5 64//5
